# xmcd
#
# Track frame offsets: 
#        150
#        13905
#        24062
#        34967
#        46395
#        57477
#        69982
#        80882
#        92327
#        105405
#        115897
#        127160
#        139942
#        152712
#        165307
#        176332
#        188240
#        200965
#        212120
#        224872
#
# Disc length: 3167 seconds
#
# Revision: 1
# Processed by: cddbd v1.5.2PL0 Copyright (c) Steve Scherf et al.
# Submitted via: ExactAudioCopy v0.99pb5
#
DISCID=260c5d14
DTITLE=Roy Orbison - Definitive Collection
DYEAR=1995
DGENRE=Oldies
TTITLE0=Oh, pretty woman
TTITLE1=Running scared
TTITLE2=Falling
TTITLE3=Love hurts
TTITLE4=Mean woman Blues
TTITLE5=I can't stop loving you
TTITLE6=The crowd
TTITLE7=Blue Bayou
TTITLE8=Borne on the wind
TTITLE9=Lana
TTITLE10=Only the lonely (know the way I feel)
TTITLE11=It's over
TTITLE12=Crying
TTITLE13=Pretty paper
TTITLE14=All I have to do is dream
TTITLE15=Dream baby (How long must I dream)
TTITLE16=Blue angel
TTITLE17=Working for the man
TTITLE18=Candy man
TTITLE19=In dreams
EXTD=
EXTT0=
EXTT1=
EXTT2=
EXTT3=
EXTT4=
EXTT5=
EXTT6=
EXTT7=
EXTT8=
EXTT9=
EXTT10=
EXTT11=
EXTT12=
EXTT13=
EXTT14=
EXTT15=
EXTT16=
EXTT17=
EXTT18=
EXTT19=
PLAYORDER=
